<?xml version="1.0" standalone="no"?>
<!DOCTYPE svg PUBLIC "-//W3C//DTD SVG 20010904//EN"
 "http://www.w3.org/TR/2001/REC-SVG-20010904/DTD/svg10.dtd">
<svg version="1.0" xmlns="http://www.w3.org/2000/svg"
 width="512.000000pt" height="512.000000pt" viewBox="0 0 512.000000 512.000000"
 preserveAspectRatio="xMidYMid meet">
<metadata>
Created by potrace 1.14, written by Peter Selinger 2001-2017
</metadata>
<g transform="translate(0.000000,512.000000) scale(0.100000,-0.100000)"
fill="#000000" stroke="none">
<path d="M799 3847 c-1 -16 -1 -2809 0 -2822 1 -12 906 -13 999 -1 28 3 76 8
105 11 205 21 400 76 570 161 221 112 408 295 519 509 66 127 130 344 143 480
3 33 8 68 11 78 6 21 7 362 1 392 -3 11 -8 43 -11 70 -12 82 -15 101 -35 182
-59 245 -192 462 -387 630 -177 152 -444 264 -713 298 -30 4 -63 9 -75 12 -12
3 -270 7 -573 9 -422 2 -553 0 -554 -9z m1044 -491 c43 -3 82 -8 85 -10 4 -2
24 -7 45 -10 21 -3 47 -11 57 -16 10 -6 25 -10 32 -10 12 0 109 -49 163 -83
37 -23 127 -119 159 -171 99 -154 140 -330 141 -601 0 -290 -50 -482 -169
-648 -64 -91 -164 -171 -256 -207 -19 -7 -39 -17 -45 -21 -12 -9 -115 -36
-169 -45 -21 -3 -48 -8 -60 -10 -11 -3 -112 -7 -223 -9 l-203 -5 0 923 c0 508
2 926 4 928 6 6 345 2 439 -5z"/>
<path d="M4045 3676 c-36 -99 -73 -195 -81 -213 -8 -17 -14 -33 -14 -36 0 -3
-104 -284 -231 -624 -127 -340 -269 -721 -316 -848 -47 -126 -108 -288 -135
-360 -27 -71 -51 -137 -53 -145 -5 -20 -110 -301 -140 -372 -13 -32 -20 -59
-17 -61 4 -2 126 -3 271 -3 l263 1 20 50 c10 28 25 68 33 90 7 22 44 123 82
225 39 102 131 349 206 550 74 201 233 626 352 945 119 319 218 585 219 590 4
14 15 43 32 85 7 19 34 89 58 155 24 66 47 127 51 136 6 15 -18 17 -263 17
l-270 -1 -67 -181z"/>
</g>
</svg>
